<svg xmlns="http://www.w3.org/2000/svg" xmlns:xlink="http://www.w3.org/1999/xlink" width="500" zoomAndPan="magnify" viewBox="0 0 375 374.999991" height="500" preserveAspectRatio="xMidYMid meet" version="1.0"><defs><g/><clipPath id="3289691dbe"><path d="M 46.875 46.875 L 328.125 46.875 L 328.125 55.3125 L 46.875 55.3125 Z M 319.78125 55.3125 L 328.125 55.3125 L 328.125 319.78125 L 319.78125 319.78125 Z M 46.875 55.3125 L 55.3125 55.3125 L 55.3125 319.78125 L 46.875 319.78125 Z M 46.875 319.78125 L 328.125 319.78125 L 328.125 328.125 L 46.875 328.125 Z M 46.875 319.78125 " clip-rule="nonzero"/></clipPath></defs><rect x="-37.5" width="450" fill="#ffffff" y="-37.499999" height="449.999989" fill-opacity="1"/><rect x="-37.5" width="450" fill="#000000" y="-37.499999" height="449.999989" fill-opacity="1"/><g clip-path="url(#3289691dbe)"><path fill="#ffffff" d="M 46.875 46.875 L 328.125 46.875 L 328.125 328.125 L 46.875 328.125 Z M 46.875 46.875 " fill-opacity="1" fill-rule="nonzero"/></g><g fill="#ffffff" fill-opacity="1"><g transform="translate(70.932926, 133.499991)"><g><path d="M 17.328125 -20.046875 L 17.328125 0 L 4.953125 0 L 4.953125 -56.09375 L 25.984375 -56.09375 C 29.015625 -56.09375 31.832031 -55.335938 34.4375 -53.828125 C 37.050781 -52.316406 39.15625 -50.210938 40.75 -47.515625 C 42.34375 -44.828125 43.140625 -41.691406 43.140625 -38.109375 C 43.140625 -34.316406 42.34375 -31.070312 40.75 -28.375 C 39.15625 -25.6875 37.050781 -23.625 34.4375 -22.1875 C 31.832031 -20.757812 29.015625 -20.046875 25.984375 -20.046875 Z M 23.921875 -46.359375 L 17.328125 -46.359375 L 17.328125 -29.78125 L 23.921875 -29.78125 C 25.734375 -29.78125 27.421875 -30.492188 28.984375 -31.921875 C 30.554688 -33.359375 31.34375 -35.421875 31.34375 -38.109375 C 31.34375 -40.703125 30.554688 -42.722656 28.984375 -44.171875 C 27.421875 -45.628906 25.734375 -46.359375 23.921875 -46.359375 Z M 23.921875 -46.359375 "/></g></g></g><g fill="#ffffff" fill-opacity="1"><g transform="translate(115.317884, 133.499991)"><g><path d="M 48.265625 -28.125 C 48.265625 -31.039062 47.492188 -33.75 45.953125 -36.25 C 44.410156 -38.757812 42.390625 -40.78125 39.890625 -42.3125 C 37.390625 -43.851562 34.679688 -44.625 31.765625 -44.625 C 28.898438 -44.625 26.203125 -43.851562 23.671875 -42.3125 C 21.140625 -40.78125 19.101562 -38.757812 17.5625 -36.25 C 16.03125 -33.75 15.265625 -31.039062 15.265625 -28.125 C 15.265625 -25.269531 16.03125 -22.578125 17.5625 -20.046875 C 19.101562 -17.515625 21.140625 -15.460938 23.671875 -13.890625 C 26.203125 -12.328125 28.898438 -11.546875 31.765625 -11.546875 C 34.679688 -11.546875 37.390625 -12.328125 39.890625 -13.890625 C 42.390625 -15.460938 44.410156 -17.515625 45.953125 -20.046875 C 47.492188 -22.578125 48.265625 -25.269531 48.265625 -28.125 Z M 60.640625 -28.046875 C 60.640625 -24.203125 59.867188 -20.53125 58.328125 -17.03125 C 56.785156 -13.539062 54.679688 -10.460938 52.015625 -7.796875 C 49.347656 -5.128906 46.28125 -3.023438 42.8125 -1.484375 C 39.351562 0.0546875 35.671875 0.828125 31.765625 0.828125 C 27.910156 0.828125 24.238281 0.0546875 20.75 -1.484375 C 17.257812 -3.023438 14.175781 -5.128906 11.5 -7.796875 C 8.832031 -10.460938 6.726562 -13.539062 5.1875 -17.03125 C 3.65625 -20.53125 2.890625 -24.203125 2.890625 -28.046875 C 2.890625 -31.953125 3.65625 -35.632812 5.1875 -39.09375 C 6.726562 -42.5625 8.832031 -45.628906 11.5 -48.296875 C 14.175781 -50.972656 17.257812 -53.078125 20.75 -54.609375 C 24.238281 -56.148438 27.910156 -56.921875 31.765625 -56.921875 C 35.671875 -56.921875 39.351562 -56.148438 42.8125 -54.609375 C 46.28125 -53.078125 49.347656 -50.972656 52.015625 -48.296875 C 54.679688 -45.628906 56.785156 -42.5625 58.328125 -39.09375 C 59.867188 -35.632812 60.640625 -31.953125 60.640625 -28.046875 Z M 60.640625 -28.046875 "/></g></g></g><g fill="#ffffff" fill-opacity="1"><g transform="translate(178.84282, 133.499991)"><g><path d="M 33 -45.375 C 30.03125 -45.375 27.304688 -44.578125 24.828125 -42.984375 C 22.359375 -41.390625 20.378906 -39.269531 18.890625 -36.625 C 17.410156 -33.988281 16.671875 -31.078125 16.671875 -27.890625 C 16.671875 -24.753906 17.410156 -21.851562 18.890625 -19.1875 C 20.378906 -16.519531 22.359375 -14.382812 24.828125 -12.78125 C 27.304688 -11.1875 30.03125 -10.390625 33 -10.390625 C 34.8125 -10.390625 36.722656 -10.648438 38.734375 -11.171875 C 40.742188 -11.703125 42.613281 -12.707031 44.34375 -14.1875 C 46.070312 -15.675781 47.429688 -17.820312 48.421875 -20.625 L 34.15625 -20.625 L 34.15625 -29.953125 L 61.796875 -29.953125 L 61.796875 -28.046875 C 61.796875 -24.085938 61.050781 -20.359375 59.5625 -16.859375 C 58.082031 -13.367188 56.019531 -10.289062 53.375 -7.625 C 50.738281 -4.957031 47.6875 -2.878906 44.21875 -1.390625 C 40.75 0.0859375 37.007812 0.828125 33 0.828125 C 29.039062 0.828125 25.3125 0.0703125 21.8125 -1.4375 C 18.320312 -2.957031 15.253906 -5.035156 12.609375 -7.671875 C 9.972656 -10.304688 7.898438 -13.367188 6.390625 -16.859375 C 4.878906 -20.359375 4.125 -24.085938 4.125 -28.046875 C 4.125 -32.003906 4.878906 -35.726562 6.390625 -39.21875 C 7.898438 -42.71875 9.972656 -45.785156 12.609375 -48.421875 C 15.253906 -51.066406 18.320312 -53.144531 21.8125 -54.65625 C 25.3125 -56.164062 29.039062 -56.921875 33 -56.921875 C 37.125 -56.921875 41.03125 -56.082031 44.71875 -54.40625 C 48.40625 -52.726562 51.625 -50.414062 54.375 -47.46875 C 57.125 -44.53125 59.128906 -41.109375 60.390625 -37.203125 L 46.78125 -37.203125 C 45.40625 -40.171875 43.453125 -42.273438 40.921875 -43.515625 C 38.390625 -44.753906 35.75 -45.375 33 -45.375 Z M 33 -45.375 "/></g></g></g><g fill="#ffffff" fill-opacity="1"><g transform="translate(243.522751, 133.499991)"><g><path d="M 48.265625 -28.125 C 48.265625 -31.039062 47.492188 -33.75 45.953125 -36.25 C 44.410156 -38.757812 42.390625 -40.78125 39.890625 -42.3125 C 37.390625 -43.851562 34.679688 -44.625 31.765625 -44.625 C 28.898438 -44.625 26.203125 -43.851562 23.671875 -42.3125 C 21.140625 -40.78125 19.101562 -38.757812 17.5625 -36.25 C 16.03125 -33.75 15.265625 -31.039062 15.265625 -28.125 C 15.265625 -25.269531 16.03125 -22.578125 17.5625 -20.046875 C 19.101562 -17.515625 21.140625 -15.460938 23.671875 -13.890625 C 26.203125 -12.328125 28.898438 -11.546875 31.765625 -11.546875 C 34.679688 -11.546875 37.390625 -12.328125 39.890625 -13.890625 C 42.390625 -15.460938 44.410156 -17.515625 45.953125 -20.046875 C 47.492188 -22.578125 48.265625 -25.269531 48.265625 -28.125 Z M 60.640625 -28.046875 C 60.640625 -24.203125 59.867188 -20.53125 58.328125 -17.03125 C 56.785156 -13.539062 54.679688 -10.460938 52.015625 -7.796875 C 49.347656 -5.128906 46.28125 -3.023438 42.8125 -1.484375 C 39.351562 0.0546875 35.671875 0.828125 31.765625 0.828125 C 27.910156 0.828125 24.238281 0.0546875 20.75 -1.484375 C 17.257812 -3.023438 14.175781 -5.128906 11.5 -7.796875 C 8.832031 -10.460938 6.726562 -13.539062 5.1875 -17.03125 C 3.65625 -20.53125 2.890625 -24.203125 2.890625 -28.046875 C 2.890625 -31.953125 3.65625 -35.632812 5.1875 -39.09375 C 6.726562 -42.5625 8.832031 -45.628906 11.5 -48.296875 C 14.175781 -50.972656 17.257812 -53.078125 20.75 -54.609375 C 24.238281 -56.148438 27.910156 -56.921875 31.765625 -56.921875 C 35.671875 -56.921875 39.351562 -56.148438 42.8125 -54.609375 C 46.28125 -53.078125 49.347656 -50.972656 52.015625 -48.296875 C 54.679688 -45.628906 56.785156 -42.5625 58.328125 -39.09375 C 59.867188 -35.632812 60.640625 -31.953125 60.640625 -28.046875 Z M 60.640625 -28.046875 "/></g></g></g><g fill="#ffffff" fill-opacity="1"><g transform="translate(70.932926, 215.999986)"><g><path d="M 17.15625 -11.390625 L 20.875 -11.390625 C 24.0625 -11.390625 26.847656 -12.128906 29.234375 -13.609375 C 31.628906 -15.097656 33.5 -17.109375 34.84375 -19.640625 C 36.195312 -22.171875 36.875 -24.972656 36.875 -28.046875 C 36.875 -31.179688 36.195312 -34 34.84375 -36.5 C 33.5 -39.007812 31.628906 -40.988281 29.234375 -42.4375 C 26.847656 -43.894531 24.0625 -44.625 20.875 -44.625 L 17.15625 -44.625 Z M 4.953125 -56.09375 L 21.609375 -56.09375 C 25.578125 -56.09375 29.25 -55.378906 32.625 -53.953125 C 36.007812 -52.523438 38.96875 -50.546875 41.5 -48.015625 C 44.03125 -45.484375 45.992188 -42.507812 47.390625 -39.09375 C 48.796875 -35.6875 49.5 -32.003906 49.5 -28.046875 C 49.5 -24.085938 48.796875 -20.398438 47.390625 -16.984375 C 45.992188 -13.578125 44.039062 -10.609375 41.53125 -8.078125 C 39.03125 -5.554688 36.078125 -3.578125 32.671875 -2.140625 C 29.265625 -0.710938 25.578125 0 21.609375 0 L 4.953125 0 Z M 4.953125 -56.09375 "/></g></g></g><g fill="#ffffff" fill-opacity="1"><g transform="translate(123.32037, 215.999986)"><g><path d="M 37.453125 -11.21875 L 37.453125 0 L 4.953125 0 L 4.953125 -56.09375 L 37.453125 -56.09375 L 37.453125 -44.875 L 17.328125 -44.875 L 17.328125 -33.75 L 36.625 -33.75 L 36.625 -22.515625 L 17.328125 -22.515625 L 17.328125 -11.21875 Z M 37.453125 -11.21875 "/></g></g></g><g fill="#ffffff" fill-opacity="1"><g transform="translate(165.725329, 215.999986)"><g><path d="M 56.4375 -56.09375 L 33.75 0 L 23.09375 0 L 0.40625 -56.09375 L 13.78125 -56.09375 L 25.328125 -24.578125 L 28.375 -15.75 L 31.4375 -24.578125 L 43.0625 -56.09375 Z M 56.4375 -56.09375 "/></g></g></g><g fill="#ffffff" fill-opacity="1"><g transform="translate(70.932926, 298.49998)"><g><path d="M 4.296875 -6.359375 C 4.296875 -8.390625 4.992188 -10.101562 6.390625 -11.5 C 7.796875 -12.90625 9.515625 -13.609375 11.546875 -13.609375 C 13.523438 -13.609375 15.226562 -12.90625 16.65625 -11.5 C 18.09375 -10.101562 18.8125 -8.390625 18.8125 -6.359375 C 18.8125 -4.367188 18.09375 -2.671875 16.65625 -1.265625 C 15.226562 0.128906 13.523438 0.828125 11.546875 0.828125 C 9.515625 0.828125 7.796875 0.128906 6.390625 -1.265625 C 4.992188 -2.671875 4.296875 -4.367188 4.296875 -6.359375 Z M 4.296875 -6.359375 "/></g></g></g><g fill="#ffffff" fill-opacity="1"><g transform="translate(94.032904, 298.49998)"><g><path d="M 45.453125 -19.0625 L 59.234375 -19.0625 C 57.972656 -15.207031 55.992188 -11.78125 53.296875 -8.78125 C 50.597656 -5.789062 47.40625 -3.441406 43.71875 -1.734375 C 40.039062 -0.0234375 36.054688 0.828125 31.765625 0.828125 C 27.804688 0.828125 24.078125 0.0859375 20.578125 -1.390625 C 17.085938 -2.878906 14.007812 -4.957031 11.34375 -7.625 C 8.675781 -10.289062 6.597656 -13.367188 5.109375 -16.859375 C 3.628906 -20.359375 2.890625 -24.085938 2.890625 -28.046875 C 2.890625 -32.003906 3.628906 -35.726562 5.109375 -39.21875 C 6.597656 -42.71875 8.675781 -45.800781 11.34375 -48.46875 C 14.007812 -51.132812 17.085938 -53.207031 20.578125 -54.6875 C 24.078125 -56.175781 27.804688 -56.921875 31.765625 -56.921875 C 36.054688 -56.921875 40.03125 -56.066406 43.6875 -54.359375 C 47.34375 -52.660156 50.515625 -50.335938 53.203125 -47.390625 C 55.898438 -44.453125 57.882812 -41.054688 59.15625 -37.203125 L 45.375 -37.203125 C 44.21875 -39.734375 42.375 -41.726562 39.84375 -43.1875 C 37.3125 -44.644531 34.617188 -45.375 31.765625 -45.375 C 28.734375 -45.375 25.976562 -44.585938 23.5 -43.015625 C 21.03125 -41.453125 19.066406 -39.363281 17.609375 -36.75 C 16.148438 -34.132812 15.421875 -31.234375 15.421875 -28.046875 C 15.421875 -24.859375 16.148438 -21.957031 17.609375 -19.34375 C 19.066406 -16.726562 21.03125 -14.632812 23.5 -13.0625 C 25.976562 -11.5 28.734375 -10.71875 31.765625 -10.71875 C 34.679688 -10.71875 37.398438 -11.488281 39.921875 -13.03125 C 42.453125 -14.570312 44.296875 -16.582031 45.453125 -19.0625 Z M 45.453125 -19.0625 "/></g></g></g><g fill="#ffffff" fill-opacity="1"><g transform="translate(155.33034, 298.49998)"><g><path d="M 48.265625 -28.125 C 48.265625 -31.039062 47.492188 -33.75 45.953125 -36.25 C 44.410156 -38.757812 42.390625 -40.78125 39.890625 -42.3125 C 37.390625 -43.851562 34.679688 -44.625 31.765625 -44.625 C 28.898438 -44.625 26.203125 -43.851562 23.671875 -42.3125 C 21.140625 -40.78125 19.101562 -38.757812 17.5625 -36.25 C 16.03125 -33.75 15.265625 -31.039062 15.265625 -28.125 C 15.265625 -25.269531 16.03125 -22.578125 17.5625 -20.046875 C 19.101562 -17.515625 21.140625 -15.460938 23.671875 -13.890625 C 26.203125 -12.328125 28.898438 -11.546875 31.765625 -11.546875 C 34.679688 -11.546875 37.390625 -12.328125 39.890625 -13.890625 C 42.390625 -15.460938 44.410156 -17.515625 45.953125 -20.046875 C 47.492188 -22.578125 48.265625 -25.269531 48.265625 -28.125 Z M 60.640625 -28.046875 C 60.640625 -24.203125 59.867188 -20.53125 58.328125 -17.03125 C 56.785156 -13.539062 54.679688 -10.460938 52.015625 -7.796875 C 49.347656 -5.128906 46.28125 -3.023438 42.8125 -1.484375 C 39.351562 0.0546875 35.671875 0.828125 31.765625 0.828125 C 27.910156 0.828125 24.238281 0.0546875 20.75 -1.484375 C 17.257812 -3.023438 14.175781 -5.128906 11.5 -7.796875 C 8.832031 -10.460938 6.726562 -13.539062 5.1875 -17.03125 C 3.65625 -20.53125 2.890625 -24.203125 2.890625 -28.046875 C 2.890625 -31.953125 3.65625 -35.632812 5.1875 -39.09375 C 6.726562 -42.5625 8.832031 -45.628906 11.5 -48.296875 C 14.175781 -50.972656 17.257812 -53.078125 20.75 -54.609375 C 24.238281 -56.148438 27.910156 -56.921875 31.765625 -56.921875 C 35.671875 -56.921875 39.351562 -56.148438 42.8125 -54.609375 C 46.28125 -53.078125 49.347656 -50.972656 52.015625 -48.296875 C 54.679688 -45.628906 56.785156 -42.5625 58.328125 -39.09375 C 59.867188 -35.632812 60.640625 -31.953125 60.640625 -28.046875 Z M 60.640625 -28.046875 "/></g></g></g><g fill="#ffffff" fill-opacity="1"><g transform="translate(218.855276, 298.49998)"><g><path d="M 74.90625 0 L 61.296875 0 L 54.703125 -38.6875 L 43.71875 0 L 31.59375 0 L 20.625 -38.6875 L 14.03125 0 L 0.40625 0 L 11.296875 -56.09375 L 25.984375 -56.09375 L 37.703125 -16.75 L 49.328125 -56.09375 L 64.015625 -56.09375 Z M 74.90625 0 "/></g></g></g></svg>