<svg xmlns="http://www.w3.org/2000/svg" xmlns:xlink="http://www.w3.org/1999/xlink" width="500" zoomAndPan="magnify" viewBox="0 0 375 374.999991" height="500" preserveAspectRatio="xMidYMid meet" version="1.0"><defs><g/><clipPath id="71cf5c3538"><path d="M 2.648438 2.648438 L 372.351562 2.648438 L 372.351562 13.742188 L 2.648438 13.742188 Z M 361.382812 13.742188 L 372.351562 13.742188 L 372.351562 361.382812 L 361.382812 361.382812 Z M 2.648438 13.742188 L 13.742188 13.742188 L 13.742188 361.382812 L 2.648438 361.382812 Z M 2.648438 361.382812 L 372.351562 361.382812 L 372.351562 372.351562 L 2.648438 372.351562 Z M 2.648438 361.382812 " clip-rule="nonzero"/></clipPath></defs><rect x="-37.5" width="450" fill="#ffffff" y="-37.499999" height="449.999989" fill-opacity="1"/><rect x="-37.5" width="450" fill="#000000" y="-37.499999" height="449.999989" fill-opacity="1"/><g clip-path="url(#71cf5c3538)"><path fill="#ffffff" d="M 2.648438 2.648438 L 372.351562 2.648438 L 372.351562 372.351562 L 2.648438 372.351562 Z M 2.648438 2.648438 " fill-opacity="1" fill-rule="nonzero"/></g><g fill="#ffffff" fill-opacity="1"><g transform="translate(23.009769, 113.250067)"><g><path d="M 24.359375 -28.1875 L 24.359375 0 L 6.953125 0 L 6.953125 -78.875 L 36.546875 -78.875 C 40.796875 -78.875 44.753906 -77.8125 48.421875 -75.6875 C 52.097656 -73.5625 55.054688 -70.601562 57.296875 -66.8125 C 59.546875 -63.019531 60.671875 -58.613281 60.671875 -53.59375 C 60.671875 -48.257812 59.546875 -43.695312 57.296875 -39.90625 C 55.054688 -36.113281 52.097656 -33.210938 48.421875 -31.203125 C 44.753906 -29.191406 40.796875 -28.1875 36.546875 -28.1875 Z M 33.640625 -65.1875 L 24.359375 -65.1875 L 24.359375 -41.875 L 33.640625 -41.875 C 36.191406 -41.875 38.566406 -42.878906 40.765625 -44.890625 C 42.972656 -46.898438 44.078125 -49.800781 44.078125 -53.59375 C 44.078125 -57.226562 42.972656 -60.066406 40.765625 -62.109375 C 38.566406 -64.160156 36.191406 -65.1875 33.640625 -65.1875 Z M 33.640625 -65.1875 "/></g></g></g><g fill="#ffffff" fill-opacity="1"><g transform="translate(85.413527, 113.250067)"><g><path d="M 67.859375 -39.5625 C 67.859375 -43.65625 66.773438 -47.460938 64.609375 -50.984375 C 62.441406 -54.503906 59.597656 -57.34375 56.078125 -59.5 C 52.566406 -61.664062 48.757812 -62.75 44.65625 -62.75 C 40.632812 -62.75 36.84375 -61.664062 33.28125 -59.5 C 29.726562 -57.34375 26.867188 -54.503906 24.703125 -50.984375 C 22.535156 -47.460938 21.453125 -43.65625 21.453125 -39.5625 C 21.453125 -35.539062 22.535156 -31.75 24.703125 -28.1875 C 26.867188 -24.632812 29.726562 -21.753906 33.28125 -19.546875 C 36.84375 -17.335938 40.632812 -16.234375 44.65625 -16.234375 C 48.757812 -16.234375 52.566406 -17.335938 56.078125 -19.546875 C 59.597656 -21.753906 62.441406 -24.632812 64.609375 -28.1875 C 66.773438 -31.75 67.859375 -35.539062 67.859375 -39.5625 Z M 85.265625 -39.4375 C 85.265625 -34.019531 84.179688 -28.859375 82.015625 -23.953125 C 79.847656 -19.046875 76.890625 -14.71875 73.140625 -10.96875 C 69.390625 -7.21875 65.078125 -4.257812 60.203125 -2.09375 C 55.328125 0.0703125 50.144531 1.15625 44.65625 1.15625 C 39.25 1.15625 34.085938 0.0703125 29.171875 -2.09375 C 24.265625 -4.257812 19.9375 -7.21875 16.1875 -10.96875 C 12.4375 -14.71875 9.476562 -19.046875 7.3125 -23.953125 C 5.144531 -28.859375 4.0625 -34.019531 4.0625 -39.4375 C 4.0625 -44.925781 5.144531 -50.109375 7.3125 -54.984375 C 9.476562 -59.859375 12.4375 -64.171875 16.1875 -67.921875 C 19.9375 -71.671875 24.265625 -74.628906 29.171875 -76.796875 C 34.085938 -78.960938 39.25 -80.046875 44.65625 -80.046875 C 50.144531 -80.046875 55.328125 -78.960938 60.203125 -76.796875 C 65.078125 -74.628906 69.390625 -71.671875 73.140625 -67.921875 C 76.890625 -64.171875 79.847656 -59.859375 82.015625 -54.984375 C 84.179688 -50.109375 85.265625 -44.925781 85.265625 -39.4375 Z M 85.265625 -39.4375 "/></g></g></g><g fill="#ffffff" fill-opacity="1"><g transform="translate(174.72746, 113.250067)"><g><path d="M 46.40625 -63.796875 C 42.226562 -63.796875 38.398438 -62.675781 34.921875 -60.4375 C 31.441406 -58.195312 28.65625 -55.21875 26.5625 -51.5 C 24.476562 -47.789062 23.4375 -43.691406 23.4375 -39.203125 C 23.4375 -34.796875 24.476562 -30.71875 26.5625 -26.96875 C 28.65625 -23.21875 31.441406 -20.21875 34.921875 -17.96875 C 38.398438 -15.726562 42.226562 -14.609375 46.40625 -14.609375 C 48.957031 -14.609375 51.644531 -14.972656 54.46875 -15.703125 C 57.289062 -16.441406 59.914062 -17.851562 62.34375 -19.9375 C 64.78125 -22.03125 66.695312 -25.050781 68.09375 -29 L 48.03125 -29 L 48.03125 -42.109375 L 86.890625 -42.109375 L 86.890625 -39.4375 C 86.890625 -33.875 85.84375 -28.632812 83.75 -23.71875 C 81.664062 -18.8125 78.765625 -14.484375 75.046875 -10.734375 C 71.335938 -6.984375 67.046875 -4.0625 62.171875 -1.96875 C 57.304688 0.113281 52.050781 1.15625 46.40625 1.15625 C 40.832031 1.15625 35.585938 0.09375 30.671875 -2.03125 C 25.765625 -4.15625 21.457031 -7.070312 17.75 -10.78125 C 14.039062 -14.5 11.117188 -18.8125 8.984375 -23.71875 C 6.859375 -28.632812 5.796875 -33.875 5.796875 -39.4375 C 5.796875 -45.007812 6.859375 -50.25 8.984375 -55.15625 C 11.117188 -60.070312 14.039062 -64.382812 17.75 -68.09375 C 21.457031 -71.800781 25.765625 -74.71875 30.671875 -76.84375 C 35.585938 -78.976562 40.832031 -80.046875 46.40625 -80.046875 C 52.195312 -80.046875 57.679688 -78.863281 62.859375 -76.5 C 68.046875 -74.144531 72.570312 -70.894531 76.4375 -66.75 C 80.3125 -62.613281 83.132812 -57.800781 84.90625 -52.3125 L 65.765625 -52.3125 C 63.835938 -56.488281 61.09375 -59.445312 57.53125 -61.1875 C 53.976562 -62.925781 50.269531 -63.796875 46.40625 -63.796875 Z M 46.40625 -63.796875 "/></g></g></g><g fill="#ffffff" fill-opacity="1"><g transform="translate(265.665286, 113.250067)"><g><path d="M 67.859375 -39.5625 C 67.859375 -43.65625 66.773438 -47.460938 64.609375 -50.984375 C 62.441406 -54.503906 59.597656 -57.34375 56.078125 -59.5 C 52.566406 -61.664062 48.757812 -62.75 44.65625 -62.75 C 40.632812 -62.75 36.84375 -61.664062 33.28125 -59.5 C 29.726562 -57.34375 26.867188 -54.503906 24.703125 -50.984375 C 22.535156 -47.460938 21.453125 -43.65625 21.453125 -39.5625 C 21.453125 -35.539062 22.535156 -31.75 24.703125 -28.1875 C 26.867188 -24.632812 29.726562 -21.753906 33.28125 -19.546875 C 36.84375 -17.335938 40.632812 -16.234375 44.65625 -16.234375 C 48.757812 -16.234375 52.566406 -17.335938 56.078125 -19.546875 C 59.597656 -21.753906 62.441406 -24.632812 64.609375 -28.1875 C 66.773438 -31.75 67.859375 -35.539062 67.859375 -39.5625 Z M 85.265625 -39.4375 C 85.265625 -34.019531 84.179688 -28.859375 82.015625 -23.953125 C 79.847656 -19.046875 76.890625 -14.71875 73.140625 -10.96875 C 69.390625 -7.21875 65.078125 -4.257812 60.203125 -2.09375 C 55.328125 0.0703125 50.144531 1.15625 44.65625 1.15625 C 39.25 1.15625 34.085938 0.0703125 29.171875 -2.09375 C 24.265625 -4.257812 19.9375 -7.21875 16.1875 -10.96875 C 12.4375 -14.71875 9.476562 -19.046875 7.3125 -23.953125 C 5.144531 -28.859375 4.0625 -34.019531 4.0625 -39.4375 C 4.0625 -44.925781 5.144531 -50.109375 7.3125 -54.984375 C 9.476562 -59.859375 12.4375 -64.171875 16.1875 -67.921875 C 19.9375 -71.671875 24.265625 -74.628906 29.171875 -76.796875 C 34.085938 -78.960938 39.25 -80.046875 44.65625 -80.046875 C 50.144531 -80.046875 55.328125 -78.960938 60.203125 -76.796875 C 65.078125 -74.628906 69.390625 -71.671875 73.140625 -67.921875 C 76.890625 -64.171875 79.847656 -59.859375 82.015625 -54.984375 C 84.179688 -50.109375 85.265625 -44.925781 85.265625 -39.4375 Z M 85.265625 -39.4375 "/></g></g></g><g fill="#ffffff" fill-opacity="1"><g transform="translate(23.009769, 228.750059)"><g><path d="M 24.125 -16.015625 L 29.34375 -16.015625 C 33.832031 -16.015625 37.757812 -17.054688 41.125 -19.140625 C 44.488281 -21.222656 47.117188 -24.039062 49.015625 -27.59375 C 50.910156 -31.15625 51.859375 -35.101562 51.859375 -39.4375 C 51.859375 -43.84375 50.910156 -47.804688 49.015625 -51.328125 C 47.117188 -54.847656 44.488281 -57.628906 41.125 -59.671875 C 37.757812 -61.722656 33.832031 -62.75 29.34375 -62.75 L 24.125 -62.75 Z M 6.953125 -78.875 L 30.390625 -78.875 C 35.960938 -78.875 41.125 -77.867188 45.875 -75.859375 C 50.632812 -73.847656 54.789062 -71.0625 58.34375 -67.5 C 61.90625 -63.945312 64.671875 -59.773438 66.640625 -54.984375 C 68.609375 -50.191406 69.59375 -45.007812 69.59375 -39.4375 C 69.59375 -33.875 68.609375 -28.691406 66.640625 -23.890625 C 64.671875 -19.097656 61.925781 -14.921875 58.40625 -11.359375 C 54.882812 -7.804688 50.726562 -5.023438 45.9375 -3.015625 C 41.144531 -1.003906 35.960938 0 30.390625 0 L 6.953125 0 Z M 6.953125 -78.875 "/></g></g></g><g fill="#ffffff" fill-opacity="1"><g transform="translate(96.664762, 228.750059)"><g><path d="M 52.65625 -15.78125 L 52.65625 0 L 6.953125 0 L 6.953125 -78.875 L 52.65625 -78.875 L 52.65625 -63.109375 L 24.359375 -63.109375 L 24.359375 -47.4375 L 51.5 -47.4375 L 51.5 -31.671875 L 24.359375 -31.671875 L 24.359375 -15.78125 Z M 52.65625 -15.78125 "/></g></g></g><g fill="#ffffff" fill-opacity="1"><g transform="translate(156.284712, 228.750059)"><g><path d="M 79.34375 -78.875 L 47.4375 0 L 32.484375 0 L 0.578125 -78.875 L 19.375 -78.875 L 35.609375 -34.5625 L 39.90625 -22.15625 L 44.203125 -34.5625 L 60.546875 -78.875 Z M 79.34375 -78.875 "/></g></g></g><g fill="#ffffff" fill-opacity="1"><g transform="translate(23.009769, 344.250052)"><g><path d="M 6.03125 -8.9375 C 6.03125 -11.789062 7.015625 -14.203125 8.984375 -16.171875 C 10.960938 -18.148438 13.378906 -19.140625 16.234375 -19.140625 C 19.023438 -19.140625 21.425781 -18.148438 23.4375 -16.171875 C 25.445312 -14.203125 26.453125 -11.789062 26.453125 -8.9375 C 26.453125 -6.144531 25.445312 -3.765625 23.4375 -1.796875 C 21.425781 0.171875 19.023438 1.15625 16.234375 1.15625 C 13.378906 1.15625 10.960938 0.171875 8.984375 -1.796875 C 7.015625 -3.765625 6.03125 -6.144531 6.03125 -8.9375 Z M 6.03125 -8.9375 "/></g></g></g><g fill="#ffffff" fill-opacity="1"><g transform="translate(55.487561, 344.250052)"><g><path d="M 63.921875 -26.796875 L 83.28125 -26.796875 C 81.507812 -21.378906 78.726562 -16.5625 74.9375 -12.34375 C 71.144531 -8.132812 66.65625 -4.832031 61.46875 -2.4375 C 56.289062 -0.0390625 50.6875 1.15625 44.65625 1.15625 C 39.09375 1.15625 33.851562 0.113281 28.9375 -1.96875 C 24.03125 -4.0625 19.703125 -6.984375 15.953125 -10.734375 C 12.203125 -14.484375 9.28125 -18.8125 7.1875 -23.71875 C 5.101562 -28.632812 4.0625 -33.875 4.0625 -39.4375 C 4.0625 -45.007812 5.101562 -50.25 7.1875 -55.15625 C 9.28125 -60.070312 12.203125 -64.40625 15.953125 -68.15625 C 19.703125 -71.90625 24.03125 -74.820312 28.9375 -76.90625 C 33.851562 -79 39.09375 -80.046875 44.65625 -80.046875 C 50.6875 -80.046875 56.273438 -78.84375 61.421875 -76.4375 C 66.566406 -74.039062 71.03125 -70.773438 74.8125 -66.640625 C 78.601562 -62.503906 81.390625 -57.726562 83.171875 -52.3125 L 63.796875 -52.3125 C 62.171875 -55.875 59.578125 -58.675781 56.015625 -60.71875 C 52.460938 -62.769531 48.675781 -63.796875 44.65625 -63.796875 C 40.40625 -63.796875 36.539062 -62.691406 33.0625 -60.484375 C 29.582031 -58.285156 26.816406 -55.347656 24.765625 -51.671875 C 22.710938 -48.003906 21.6875 -43.925781 21.6875 -39.4375 C 21.6875 -34.957031 22.710938 -30.878906 24.765625 -27.203125 C 26.816406 -23.523438 29.582031 -20.582031 33.0625 -18.375 C 36.539062 -16.175781 40.40625 -15.078125 44.65625 -15.078125 C 48.757812 -15.078125 52.585938 -16.160156 56.140625 -18.328125 C 59.703125 -20.492188 62.296875 -23.316406 63.921875 -26.796875 Z M 63.921875 -26.796875 "/></g></g></g><g fill="#ffffff" fill-opacity="1"><g transform="translate(141.669703, 344.250052)"><g><path d="M 67.859375 -39.5625 C 67.859375 -43.65625 66.773438 -47.460938 64.609375 -50.984375 C 62.441406 -54.503906 59.597656 -57.34375 56.078125 -59.5 C 52.566406 -61.664062 48.757812 -62.75 44.65625 -62.75 C 40.632812 -62.75 36.84375 -61.664062 33.28125 -59.5 C 29.726562 -57.34375 26.867188 -54.503906 24.703125 -50.984375 C 22.535156 -47.460938 21.453125 -43.65625 21.453125 -39.5625 C 21.453125 -35.539062 22.535156 -31.75 24.703125 -28.1875 C 26.867188 -24.632812 29.726562 -21.753906 33.28125 -19.546875 C 36.84375 -17.335938 40.632812 -16.234375 44.65625 -16.234375 C 48.757812 -16.234375 52.566406 -17.335938 56.078125 -19.546875 C 59.597656 -21.753906 62.441406 -24.632812 64.609375 -28.1875 C 66.773438 -31.75 67.859375 -35.539062 67.859375 -39.5625 Z M 85.265625 -39.4375 C 85.265625 -34.019531 84.179688 -28.859375 82.015625 -23.953125 C 79.847656 -19.046875 76.890625 -14.71875 73.140625 -10.96875 C 69.390625 -7.21875 65.078125 -4.257812 60.203125 -2.09375 C 55.328125 0.0703125 50.144531 1.15625 44.65625 1.15625 C 39.25 1.15625 34.085938 0.0703125 29.171875 -2.09375 C 24.265625 -4.257812 19.9375 -7.21875 16.1875 -10.96875 C 12.4375 -14.71875 9.476562 -19.046875 7.3125 -23.953125 C 5.144531 -28.859375 4.0625 -34.019531 4.0625 -39.4375 C 4.0625 -44.925781 5.144531 -50.109375 7.3125 -54.984375 C 9.476562 -59.859375 12.4375 -64.171875 16.1875 -67.921875 C 19.9375 -71.671875 24.265625 -74.628906 29.171875 -76.796875 C 34.085938 -78.960938 39.25 -80.046875 44.65625 -80.046875 C 50.144531 -80.046875 55.328125 -78.960938 60.203125 -76.796875 C 65.078125 -74.628906 69.390625 -71.671875 73.140625 -67.921875 C 76.890625 -64.171875 79.847656 -59.859375 82.015625 -54.984375 C 84.179688 -50.109375 85.265625 -44.925781 85.265625 -39.4375 Z M 85.265625 -39.4375 "/></g></g></g><g fill="#ffffff" fill-opacity="1"><g transform="translate(230.983647, 344.250052)"><g><path d="M 105.328125 0 L 86.1875 0 L 76.90625 -54.40625 L 61.484375 0 L 44.421875 0 L 29 -54.40625 L 19.71875 0 L 0.578125 0 L 15.890625 -78.875 L 36.546875 -78.875 L 53.015625 -23.546875 L 69.375 -78.875 L 90.015625 -78.875 Z M 105.328125 0 "/></g></g></g></svg>